<?xml version="1.0" encoding="UTF-8"?>
<!DOCTYPE svg PUBLIC "-//W3C//DTD SVG 1.1//EN" "http://www.w3.org/Graphics/SVG/1.1/DTD/svg11.dtd">
<!-- Creator: CorelDRAW Standard 2024 -->
<svg xmlns="http://www.w3.org/2000/svg" xml:space="preserve" width="200px" height="200px" version="1.1" style="shape-rendering:geometricPrecision; text-rendering:geometricPrecision; image-rendering:optimizeQuality; fill-rule:evenodd; clip-rule:evenodd"
viewBox="0 0 200 200"
 xmlns:xlink="http://www.w3.org/1999/xlink"
 xmlns:xodm="http://www.corel.com/coreldraw/odm/2003">
 <defs>
  <style type="text/css">
   <![CDATA[
    .str0 {stroke:#9900CC;stroke-width:10;stroke-miterlimit:22.9256}
    .str1 {stroke:white;stroke-width:2.5;stroke-miterlimit:22.9256}
    .fil2 {fill:none}
    .fil4 {fill:black}
    .fil0 {fill:black}
    .fil3 {fill:#9900CC}
    .fil1 {fill:#666666;fill-rule:nonzero}
   ]]>
  </style>
    <clipPath id="id0">
     <path d="M99.924 4.426c52.826,0 95.65,42.824 95.65,95.65 0,52.826 -42.824,95.649 -95.65,95.649 -52.826,0 -95.649,-42.823 -95.649,-95.649 0,-52.826 42.823,-95.65 95.649,-95.65z"/>
    </clipPath>
 </defs>
 <g id="Camada_x0020_1">
  <metadata id="CorelCorpID_0Corel-Layer"/>
  <g id="_2995806900784">
   <path class="fil0" d="M99.924 4.426c52.826,0 95.65,42.824 95.65,95.65 0,52.826 -42.824,95.649 -95.65,95.649 -52.826,0 -95.649,-42.823 -95.649,-95.649 0,-52.826 42.823,-95.65 95.649,-95.65z"/>
   <g style="clip-path:url(#id0)">
    <g>
     <path id="_1" class="fil1" d="M29.893 4.212l76.775 0c15.238,0 26.544,0.626 34.007,1.877 7.508,1.296 14.166,3.933 20.065,7.91 5.899,4.022 10.815,9.34 14.747,15.999 3.933,6.658 5.899,14.166 5.899,22.433 0,8.938 -2.413,17.205 -7.239,24.668 -4.827,7.508 -11.396,13.094 -19.663,16.847 11.664,3.441 20.601,9.251 26.902,17.474 6.257,8.222 9.385,17.875 9.385,29.002 0,8.759 -2.011,17.25 -6.078,25.517 -4.066,8.268 -9.608,14.881 -16.668,19.842 -7.017,4.915 -15.686,7.954 -26.009,9.116 -6.435,0.67 -22.031,1.117 -46.744,1.296l-65.379 0 0 -191.981zm38.879 31.908l0 44.241 25.383 0c15.06,0 24.444,-0.223 28.109,-0.67 6.614,-0.76 11.842,-3.039 15.641,-6.837 3.798,-3.799 5.675,-8.759 5.675,-14.926 0,-5.944 -1.653,-10.725 -4.916,-14.435 -3.262,-3.709 -8.133,-5.943 -14.568,-6.703 -3.843,-0.447 -14.881,-0.67 -33.069,-0.67l-22.255 0zm0 76.149l0 51.48 35.929 0c13.943,0 22.836,-0.402 26.59,-1.161 5.765,-1.073 10.457,-3.62 14.077,-7.687 3.619,-4.111 5.452,-9.518 5.452,-16.356 0,-5.809 -1.386,-10.68 -4.201,-14.702 -2.771,-4.022 -6.837,-6.971 -12.111,-8.804 -5.273,-1.832 -16.758,-2.77 -34.41,-2.77l-31.326 0z"/>
    </g>
   </g>
   <path class="fil2 str0" d="M99.924 4.426c52.826,0 95.65,42.824 95.65,95.65 0,52.826 -42.824,95.649 -95.65,95.649 -52.826,0 -95.649,-42.823 -95.649,-95.649 0,-52.826 42.823,-95.65 95.649,-95.65z"/>
   <path class="fil3 str1" d="M119.13 42.39c-2.397,1.091 -2.497,2.518 -3.932,5.978l-32.3 78.107c-1.096,2.605 -8.548,19.524 -8.412,21.65 0.181,2.835 3.003,4.938 6.122,3.499 2.064,-0.952 2.758,-3.88 3.654,-6.124 0.978,-2.454 1.96,-4.755 2.958,-7.135l29.354 -70.957c1.069,-2.649 8.452,-19.403 8.354,-21.432 -0.129,-2.662 -2.95,-4.882 -5.798,-3.586z"/>
   <g>
    <path class="fil3 str1" d="M37.138 73.331c-0.216,3.125 0.774,1.944 3.666,2.39 0.73,2.075 -1.681,5.145 -3.507,8.304l-6.583 12.352c-0.717,1.55 -0.962,3.113 -1.629,4.668 -1.328,3.1 -2.943,5.408 -4.357,8.274 -2.315,4.694 -6.325,13.7 -5.268,19.904 0.793,4.649 9.459,10.623 13.054,12.512 2.36,1.239 6.691,2.316 9.788,2.835 4.118,0.688 7.42,1.18 10.591,-1.093 7.3,-5.232 10.492,-17.012 13.674,-24.502 1.342,-3.158 1.898,-2.502 4.194,-8.432l5.8 -16.278c0.492,-1.243 0.435,-1.108 1.832,-1.497 1.31,1.225 1.434,2.644 3.671,1.917 1.022,-2.411 -0.623,-3.43 -1.363,-5.172 1.324,-2.24 3.781,-6.233 4.664,-8.833 0.873,-2.57 0.423,-10.245 -0.306,-12.931 -2.406,-8.867 -17.762,-16.128 -26.542,-14.559 -4.09,0.731 -6.452,3.037 -8.938,4.952 -3.127,2.409 -4.202,3.549 -5.911,7.965 -2.726,7.04 -0.993,5.508 -4.301,6.084 -1.368,0.238 -1.263,0.371 -2.229,1.14z"/>
    <path class="fil4" d="M44.412 81.627c5.551,2.432 10.585,0.785 24.12,10.215 0.856,0.597 2.066,1.668 2.959,2.118l4.043 -6.079c1.405,-2.332 3.563,-4.076 2.607,-7.232 -1.519,-5.013 -5.846,-8.566 -10.047,-10.77 -4.448,-2.334 -11.444,-4.449 -17.029,-2.37 -1.27,0.473 -2.626,1.085 -3.104,1.946l-3.549 12.172z"/>
    <path class="fil4" d="M57.068 122.862c-4.441,-0.451 -9.984,-2.63 -13.599,-4.368 -2.1,-1.009 -4.168,-1.989 -6.05,-3.112 -2.044,-1.22 -3.727,-2.64 -5.359,-3.703 -0.597,0.761 -5.816,12.162 -5.876,12.896 -0.29,3.567 6.448,7.573 9.719,9.029 2.969,1.322 11.67,5.212 14.993,2.505 0.837,-0.681 5.744,-11.741 6.172,-13.247z"/>
   </g>
   <g>
    <path class="fil3 str1" d="M129.486 73.331c-0.216,3.125 0.773,1.944 3.666,2.39 0.73,2.075 -1.682,5.145 -3.507,8.304l-6.583 12.352c-0.718,1.55 -0.963,3.113 -1.629,4.668 -1.329,3.1 -2.944,5.408 -4.358,8.274 -2.315,4.694 -6.325,13.7 -5.267,19.904 0.793,4.649 9.459,10.623 13.054,12.512 2.359,1.239 6.69,2.316 9.787,2.835 4.118,0.688 7.421,1.18 10.592,-1.093 7.299,-5.232 10.492,-17.012 13.674,-24.502 1.341,-3.158 1.898,-2.502 4.193,-8.432l5.801 -16.278c0.492,-1.243 0.434,-1.108 1.831,-1.497 1.311,1.225 1.434,2.644 3.671,1.917 1.023,-2.411 -0.622,-3.43 -1.362,-5.172 1.324,-2.24 3.781,-6.233 4.664,-8.833 0.873,-2.57 0.422,-10.245 -0.307,-12.931 -2.406,-8.867 -17.761,-16.128 -26.542,-14.559 -4.09,0.731 -6.451,3.037 -8.937,4.952 -3.128,2.409 -4.202,3.549 -5.912,7.965 -2.725,7.04 -0.993,5.508 -4.301,6.084 -1.368,0.238 -1.262,0.371 -2.228,1.14z"/>
    <path class="fil4" d="M136.76 81.627c5.551,2.432 10.584,0.785 24.119,10.215 0.857,0.597 2.066,1.668 2.959,2.118l4.043 -6.079c1.405,-2.332 3.564,-4.076 2.607,-7.232 -1.519,-5.013 -5.845,-8.566 -10.046,-10.77 -4.448,-2.334 -11.444,-4.449 -17.03,-2.37 -1.27,0.473 -2.626,1.085 -3.103,1.946l-3.549 12.172z"/>
    <path class="fil4" d="M149.415 122.862c-4.44,-0.451 -9.984,-2.63 -13.598,-4.368 -2.1,-1.009 -4.169,-1.989 -6.05,-3.112 -2.044,-1.22 -3.727,-2.64 -5.36,-3.703 -0.596,0.761 -5.816,12.162 -5.875,12.896 -0.29,3.567 6.448,7.573 9.719,9.029 2.969,1.322 11.67,5.212 14.993,2.505 0.837,-0.681 5.743,-11.741 6.171,-13.247z"/>
   </g>
  </g>
 </g>
</svg>
